<svg xmlns="http://www.w3.org/2000/svg" xmlns:xlink="http://www.w3.org/1999/xlink" width="500" zoomAndPan="magnify" viewBox="0 0 375 374.999991" height="500" preserveAspectRatio="xMidYMid meet" version="1.0"><defs><g/><clipPath id="3c14096d02"><path d="M 187.5 0 C 83.945312 0 0 83.945312 0 187.5 C 0 291.054688 83.945312 375 187.5 375 C 291.054688 375 375 291.054688 375 187.5 C 375 83.945312 291.054688 0 187.5 0 Z M 187.5 0 " clip-rule="nonzero"/></clipPath><clipPath id="5953d91f75"><path d="M 0 0 L 375 0 L 375 375 L 0 375 Z M 0 0 " clip-rule="nonzero"/></clipPath><clipPath id="5a7f6dea6b"><path d="M 187.5 0 C 83.945312 0 0 83.945312 0 187.5 C 0 291.054688 83.945312 375 187.5 375 C 291.054688 375 375 291.054688 375 187.5 C 375 83.945312 291.054688 0 187.5 0 Z M 187.5 0 " clip-rule="nonzero"/></clipPath><clipPath id="4a4d52bb54"><rect x="0" width="375" y="0" height="375"/></clipPath></defs><g clip-path="url(#3c14096d02)"><g transform="matrix(1, 0, 0, 1, 0, 0)"><g clip-path="url(#4a4d52bb54)"><g clip-path="url(#5953d91f75)"><g clip-path="url(#5a7f6dea6b)"><rect x="-82.5" width="540" fill="#064e3b" height="539.999987" y="-82.499998" fill-opacity="1"/></g></g></g></g><path stroke-linecap="butt" transform="matrix(0.75, 0, 0, 0.75, 0.0000045, 0)" fill="none" stroke-linejoin="miter" d="M 250.00001 0 C 111.927085 0 -0.000006 111.927091 -0.000006 250.000016 C -0.000006 388.072942 111.927085 500.000033 250.00001 500.000033 C 388.072936 500.000033 500.000027 388.072942 500.000027 250.000016 C 500.000027 111.927091 388.072936 0 250.00001 0 Z M 250.00001 0 " stroke="#10b981" stroke-width="40" stroke-opacity="1" stroke-miterlimit="4"/></g><g fill="#ffffff" fill-opacity="1"><g transform="translate(68.450584, 248.624984)"><g><path d="M 119.28125 -79.984375 L 92.96875 -79.984375 C 91.957031 -86.753906 89.066406 -92.070312 84.296875 -95.9375 C 79.535156 -99.800781 73.59375 -101.734375 66.46875 -101.734375 C 56.925781 -101.734375 49.28125 -98.238281 43.53125 -91.25 C 37.78125 -84.257812 34.90625 -74.351562 34.90625 -61.53125 C 34.90625 -48.394531 37.800781 -38.410156 43.59375 -31.578125 C 49.382812 -24.742188 56.945312 -21.328125 66.28125 -21.328125 C 73.207031 -21.328125 79.070312 -23.140625 83.875 -26.765625 C 88.6875 -30.390625 91.71875 -35.488281 92.96875 -42.0625 L 119.28125 -41.9375 C 118.363281 -34.40625 115.679688 -27.316406 111.234375 -20.671875 C 106.785156 -14.023438 100.742188 -8.632812 93.109375 -4.5 C 85.484375 -0.375 76.398438 1.6875 65.859375 1.6875 C 54.878906 1.6875 45.070312 -0.796875 36.4375 -5.765625 C 27.8125 -10.734375 21.003906 -17.925781 16.015625 -27.34375 C 11.023438 -36.757812 8.53125 -48.15625 8.53125 -61.53125 C 8.53125 -74.957031 11.050781 -86.375 16.09375 -95.78125 C 21.144531 -105.195312 28 -112.378906 36.65625 -117.328125 C 45.3125 -122.273438 55.046875 -124.75 65.859375 -124.75 C 75.359375 -124.75 83.921875 -122.992188 91.546875 -119.484375 C 99.179688 -115.984375 105.429688 -110.894531 110.296875 -104.21875 C 115.160156 -97.550781 118.15625 -89.472656 119.28125 -79.984375 Z M 119.28125 -79.984375 "/></g></g></g><g fill="#ffffff" fill-opacity="1"><g transform="translate(195.716403, 248.624984)"><g><path d="M 77.453125 -87.671875 C 76.972656 -92.523438 74.898438 -96.289062 71.234375 -98.96875 C 67.566406 -101.65625 62.628906 -103 56.421875 -103 C 50.054688 -103 45.171875 -101.695312 41.765625 -99.09375 C 38.359375 -96.488281 36.65625 -93.203125 36.65625 -89.234375 C 36.570312 -84.828125 38.460938 -81.492188 42.328125 -79.234375 C 46.203125 -76.972656 50.800781 -75.21875 56.125 -73.96875 L 67.1875 -71.328125 C 74.3125 -69.722656 80.648438 -67.398438 86.203125 -64.359375 C 91.753906 -61.316406 96.117188 -57.398438 99.296875 -52.609375 C 102.484375 -47.816406 104.078125 -42 104.078125 -35.15625 C 104.035156 -23.894531 99.816406 -14.925781 91.421875 -8.25 C 83.035156 -1.582031 71.332031 1.75 56.3125 1.75 C 41.363281 1.75 29.441406 -1.65625 20.546875 -8.46875 C 11.660156 -15.28125 7.054688 -25.335938 6.734375 -38.640625 L 31.90625 -38.640625 C 32.34375 -32.472656 34.773438 -27.835938 39.203125 -24.734375 C 43.628906 -21.628906 49.226562 -20.078125 56 -20.078125 C 62.613281 -20.078125 67.894531 -21.476562 71.84375 -24.28125 C 75.789062 -27.082031 77.78125 -30.726562 77.8125 -35.21875 C 77.78125 -39.382812 75.957031 -42.585938 72.34375 -44.828125 C 68.738281 -47.066406 63.59375 -48.988281 56.90625 -50.59375 L 43.5 -53.96875 C 33.125 -56.445312 24.929688 -60.390625 18.921875 -65.796875 C 12.921875 -71.203125 9.9375 -78.4375 9.96875 -87.5 C 9.9375 -94.945312 11.929688 -101.460938 15.953125 -107.046875 C 19.984375 -112.640625 25.519531 -116.988281 32.5625 -120.09375 C 39.613281 -123.195312 47.628906 -124.75 56.609375 -124.75 C 65.742188 -124.75 73.722656 -123.1875 80.546875 -120.0625 C 87.378906 -116.9375 92.695312 -112.585938 96.5 -107.015625 C 100.3125 -101.453125 102.273438 -95.003906 102.390625 -87.671875 Z M 77.453125 -87.671875 "/></g></g></g></svg>